<mxfile host="app.diagrams.net" modified="2020-10-21T15:12:34.789Z" agent="5.0 (Windows NT 10.0; Win64; x64) AppleWebKit/537.36 (KHTML, like Gecko) Chrome/86.0.4240.75 Safari/537.36" etag="pbFrVzFX6S8S-MvzheXV" version="13.8.1" type="github">
  <diagram id="wHrh6kmgO2e7Xyq7cvha" name="Page-1">
    <mxGraphModel dx="1865" dy="548" grid="1" gridSize="10" guides="1" tooltips="1" connect="1" arrows="1" fold="1" page="1" pageScale="1" pageWidth="827" pageHeight="1169" math="0" shadow="0">
      <root>
        <mxCell id="0" />
        <mxCell id="1" parent="0" />
        <mxCell id="9OKxmw70vjrB0rI9SiNE-2" value="user" style="rounded=1;arcSize=10;whiteSpace=wrap;html=1;align=center;" vertex="1" parent="1">
          <mxGeometry x="-180" y="510" width="100" height="40" as="geometry" />
        </mxCell>
        <mxCell id="9OKxmw70vjrB0rI9SiNE-3" value="game&lt;br&gt;" style="rounded=1;arcSize=10;whiteSpace=wrap;html=1;align=center;" vertex="1" parent="1">
          <mxGeometry x="340" y="490" width="100" height="40" as="geometry" />
        </mxCell>
        <mxCell id="9OKxmw70vjrB0rI9SiNE-4" value="Game_item&lt;br&gt;" style="rounded=1;arcSize=10;whiteSpace=wrap;html=1;align=center;" vertex="1" parent="1">
          <mxGeometry x="130" y="590" width="100" height="40" as="geometry" />
        </mxCell>
        <mxCell id="9OKxmw70vjrB0rI9SiNE-5" value="Library_of_games&lt;br&gt;" style="rounded=1;arcSize=10;whiteSpace=wrap;html=1;align=center;" vertex="1" parent="1">
          <mxGeometry x="20" y="420" width="100" height="40" as="geometry" />
        </mxCell>
        <mxCell id="9OKxmw70vjrB0rI9SiNE-6" value="Library_of_items" style="rounded=1;arcSize=10;whiteSpace=wrap;html=1;align=center;" vertex="1" parent="1">
          <mxGeometry x="-20" y="590" width="100" height="40" as="geometry" />
        </mxCell>
        <mxCell id="9OKxmw70vjrB0rI9SiNE-10" value="GameCommunity" style="rounded=1;arcSize=10;whiteSpace=wrap;html=1;align=center;" vertex="1" parent="1">
          <mxGeometry x="60" y="940" width="100" height="40" as="geometry" />
        </mxCell>
        <mxCell id="9OKxmw70vjrB0rI9SiNE-11" value="FriendsList&lt;br&gt;" style="rounded=1;arcSize=10;whiteSpace=wrap;html=1;align=center;" vertex="1" parent="1">
          <mxGeometry x="40" y="720" width="100" height="40" as="geometry" />
        </mxCell>
        <mxCell id="9OKxmw70vjrB0rI9SiNE-14" value="UserDM" style="rounded=1;arcSize=10;whiteSpace=wrap;html=1;align=center;" vertex="1" parent="1">
          <mxGeometry x="-350" y="630" width="100" height="40" as="geometry" />
        </mxCell>
        <mxCell id="9OKxmw70vjrB0rI9SiNE-15" value="UsersChat&lt;br&gt;" style="rounded=1;arcSize=10;whiteSpace=wrap;html=1;align=center;" vertex="1" parent="1">
          <mxGeometry x="-360" y="290" width="100" height="40" as="geometry" />
        </mxCell>
        <mxCell id="9OKxmw70vjrB0rI9SiNE-16" value="CommentsOnGame&lt;br&gt;" style="rounded=1;arcSize=10;whiteSpace=wrap;html=1;align=center;" vertex="1" parent="1">
          <mxGeometry x="80" y="830" width="100" height="40" as="geometry" />
        </mxCell>
        <mxCell id="9OKxmw70vjrB0rI9SiNE-19" value="Game&#39;sNews" style="rounded=1;arcSize=10;whiteSpace=wrap;html=1;align=center;" vertex="1" parent="1">
          <mxGeometry x="520" y="600" width="100" height="40" as="geometry" />
        </mxCell>
        <mxCell id="9OKxmw70vjrB0rI9SiNE-20" value="AdditionalContent" style="rounded=1;arcSize=10;whiteSpace=wrap;html=1;align=center;" vertex="1" parent="1">
          <mxGeometry x="540" y="520" width="100" height="40" as="geometry" />
        </mxCell>
        <mxCell id="9OKxmw70vjrB0rI9SiNE-22" value="CommunityPost" style="rounded=1;arcSize=10;whiteSpace=wrap;html=1;align=center;" vertex="1" parent="1">
          <mxGeometry x="-170" y="990" width="100" height="40" as="geometry" />
        </mxCell>
        <mxCell id="9OKxmw70vjrB0rI9SiNE-23" value="CommunityPostTags&lt;br&gt;" style="rounded=1;arcSize=10;whiteSpace=wrap;html=1;align=center;" vertex="1" parent="1">
          <mxGeometry y="1090" width="100" height="40" as="geometry" />
        </mxCell>
        <mxCell id="9OKxmw70vjrB0rI9SiNE-24" value="GameCopy" style="rounded=1;arcSize=10;whiteSpace=wrap;html=1;align=center;" vertex="1" parent="1">
          <mxGeometry x="190" y="280" width="100" height="40" as="geometry" />
        </mxCell>
        <mxCell id="9OKxmw70vjrB0rI9SiNE-26" value="PurchaseGameItem" style="rounded=1;arcSize=10;whiteSpace=wrap;html=1;align=center;" vertex="1" parent="1">
          <mxGeometry y="360" width="100" height="40" as="geometry" />
        </mxCell>
        <mxCell id="9OKxmw70vjrB0rI9SiNE-27" value="PurchaseGame&lt;br&gt;" style="rounded=1;arcSize=10;whiteSpace=wrap;html=1;align=center;" vertex="1" parent="1">
          <mxGeometry x="160" y="150" width="100" height="40" as="geometry" />
        </mxCell>
        <mxCell id="9OKxmw70vjrB0rI9SiNE-28" value="BalanceDec" style="rounded=1;arcSize=10;whiteSpace=wrap;html=1;align=center;" vertex="1" parent="1">
          <mxGeometry x="10" y="210" width="100" height="40" as="geometry" />
        </mxCell>
        <mxCell id="9OKxmw70vjrB0rI9SiNE-29" value="BalanceInc" style="rounded=1;arcSize=10;whiteSpace=wrap;html=1;align=center;" vertex="1" parent="1">
          <mxGeometry x="20" y="80" width="100" height="40" as="geometry" />
        </mxCell>
        <mxCell id="9OKxmw70vjrB0rI9SiNE-30" value="SellingGameItem" style="rounded=1;arcSize=10;whiteSpace=wrap;html=1;align=center;" vertex="1" parent="1">
          <mxGeometry x="414" y="100" width="100" height="40" as="geometry" />
        </mxCell>
        <mxCell id="9OKxmw70vjrB0rI9SiNE-31" value="ReturnGame&lt;br&gt;" style="rounded=1;arcSize=10;whiteSpace=wrap;html=1;align=center;" vertex="1" parent="1">
          <mxGeometry x="260" y="30" width="100" height="40" as="geometry" />
        </mxCell>
        <mxCell id="9OKxmw70vjrB0rI9SiNE-32" value="GameDeveloper&lt;br&gt;" style="rounded=1;arcSize=10;whiteSpace=wrap;html=1;align=center;" vertex="1" parent="1">
          <mxGeometry x="380" y="610" width="100" height="40" as="geometry" />
        </mxCell>
        <mxCell id="9OKxmw70vjrB0rI9SiNE-33" value="Publicshing house" style="rounded=1;arcSize=10;whiteSpace=wrap;html=1;align=center;" vertex="1" parent="1">
          <mxGeometry x="400" y="700" width="100" height="40" as="geometry" />
        </mxCell>
        <mxCell id="9OKxmw70vjrB0rI9SiNE-34" value="BalanceHistory" style="rounded=1;arcSize=10;whiteSpace=wrap;html=1;align=center;" vertex="1" parent="1">
          <mxGeometry x="-130" y="140" width="100" height="40" as="geometry" />
        </mxCell>
        <mxCell id="9OKxmw70vjrB0rI9SiNE-35" value="" style="edgeStyle=entityRelationEdgeStyle;fontSize=12;html=1;endArrow=ERoneToMany;exitX=0.5;exitY=1;exitDx=0;exitDy=0;" edge="1" parent="1" source="9OKxmw70vjrB0rI9SiNE-2" target="9OKxmw70vjrB0rI9SiNE-11">
          <mxGeometry width="100" height="100" relative="1" as="geometry">
            <mxPoint x="-250" y="660" as="sourcePoint" />
            <mxPoint x="-150" y="560" as="targetPoint" />
          </mxGeometry>
        </mxCell>
        <mxCell id="9OKxmw70vjrB0rI9SiNE-36" value="message&lt;br&gt;" style="rounded=1;arcSize=10;whiteSpace=wrap;html=1;align=center;" vertex="1" parent="1">
          <mxGeometry x="-385" y="530" width="100" height="40" as="geometry" />
        </mxCell>
        <mxCell id="9OKxmw70vjrB0rI9SiNE-47" value="" style="edgeStyle=entityRelationEdgeStyle;fontSize=12;html=1;endArrow=ERmany;startArrow=ERmany;entryX=0.5;entryY=0;entryDx=0;entryDy=0;exitX=0.5;exitY=1;exitDx=0;exitDy=0;" edge="1" parent="1" source="9OKxmw70vjrB0rI9SiNE-36" target="9OKxmw70vjrB0rI9SiNE-14">
          <mxGeometry width="100" height="100" relative="1" as="geometry">
            <mxPoint x="180" y="510" as="sourcePoint" />
            <mxPoint x="280" y="410" as="targetPoint" />
          </mxGeometry>
        </mxCell>
        <mxCell id="9OKxmw70vjrB0rI9SiNE-48" value="" style="edgeStyle=entityRelationEdgeStyle;fontSize=12;html=1;endArrow=ERmany;startArrow=ERmany;entryX=1;entryY=0.5;entryDx=0;entryDy=0;exitX=0;exitY=0.5;exitDx=0;exitDy=0;" edge="1" parent="1" source="9OKxmw70vjrB0rI9SiNE-2" target="9OKxmw70vjrB0rI9SiNE-14">
          <mxGeometry width="100" height="100" relative="1" as="geometry">
            <mxPoint x="180" y="510" as="sourcePoint" />
            <mxPoint x="280" y="410" as="targetPoint" />
          </mxGeometry>
        </mxCell>
        <mxCell id="9OKxmw70vjrB0rI9SiNE-52" value="ChatMembers" style="rounded=1;arcSize=10;whiteSpace=wrap;html=1;align=center;" vertex="1" parent="1">
          <mxGeometry x="-230" y="310" width="100" height="40" as="geometry" />
        </mxCell>
        <mxCell id="9OKxmw70vjrB0rI9SiNE-55" value="" style="edgeStyle=entityRelationEdgeStyle;fontSize=12;html=1;endArrow=ERmany;startArrow=ERmany;exitX=1;exitY=0.5;exitDx=0;exitDy=0;entryX=0.5;entryY=0;entryDx=0;entryDy=0;" edge="1" parent="1" source="9OKxmw70vjrB0rI9SiNE-58" target="9OKxmw70vjrB0rI9SiNE-36">
          <mxGeometry width="100" height="100" relative="1" as="geometry">
            <mxPoint x="-270" y="470" as="sourcePoint" />
            <mxPoint x="-170" y="370" as="targetPoint" />
          </mxGeometry>
        </mxCell>
        <mxCell id="9OKxmw70vjrB0rI9SiNE-57" value="" style="edgeStyle=entityRelationEdgeStyle;fontSize=12;html=1;endArrow=ERmany;entryX=0;entryY=0;entryDx=0;entryDy=0;exitX=1;exitY=0.5;exitDx=0;exitDy=0;" edge="1" parent="1" source="9OKxmw70vjrB0rI9SiNE-15" target="9OKxmw70vjrB0rI9SiNE-52">
          <mxGeometry width="100" height="100" relative="1" as="geometry">
            <mxPoint x="-270" y="400" as="sourcePoint" />
            <mxPoint x="-170" y="300" as="targetPoint" />
          </mxGeometry>
        </mxCell>
        <mxCell id="9OKxmw70vjrB0rI9SiNE-58" value="ChatController" style="rounded=1;arcSize=10;whiteSpace=wrap;html=1;align=center;" vertex="1" parent="1">
          <mxGeometry x="-360" y="400" width="100" height="40" as="geometry" />
        </mxCell>
        <mxCell id="9OKxmw70vjrB0rI9SiNE-61" value="" style="edgeStyle=entityRelationEdgeStyle;fontSize=12;html=1;endArrow=ERmany;startArrow=ERmany;entryX=0.5;entryY=0;entryDx=0;entryDy=0;exitX=0.5;exitY=1;exitDx=0;exitDy=0;" edge="1" parent="1" source="9OKxmw70vjrB0rI9SiNE-52" target="9OKxmw70vjrB0rI9SiNE-2">
          <mxGeometry width="100" height="100" relative="1" as="geometry">
            <mxPoint x="-170" y="530" as="sourcePoint" />
            <mxPoint x="-70" y="430" as="targetPoint" />
          </mxGeometry>
        </mxCell>
        <mxCell id="9OKxmw70vjrB0rI9SiNE-67" style="edgeStyle=orthogonalEdgeStyle;rounded=0;orthogonalLoop=1;jettySize=auto;html=1;exitX=0.5;exitY=1;exitDx=0;exitDy=0;" edge="1" parent="1">
          <mxGeometry relative="1" as="geometry">
            <mxPoint x="-393" y="430" as="sourcePoint" />
            <mxPoint x="-393" y="430" as="targetPoint" />
          </mxGeometry>
        </mxCell>
        <mxCell id="9OKxmw70vjrB0rI9SiNE-69" value="" style="edgeStyle=entityRelationEdgeStyle;fontSize=12;html=1;endArrow=ERmany;startArrow=ERmany;entryX=0;entryY=1;entryDx=0;entryDy=0;exitX=1;exitY=0;exitDx=0;exitDy=0;" edge="1" parent="1" source="9OKxmw70vjrB0rI9SiNE-58" target="9OKxmw70vjrB0rI9SiNE-52">
          <mxGeometry width="100" height="100" relative="1" as="geometry">
            <mxPoint x="-180" y="520" as="sourcePoint" />
            <mxPoint x="-80" y="420" as="targetPoint" />
          </mxGeometry>
        </mxCell>
        <mxCell id="9OKxmw70vjrB0rI9SiNE-73" value="" style="edgeStyle=entityRelationEdgeStyle;fontSize=12;html=1;endArrow=ERmandOne;startArrow=ERmandOne;entryX=0;entryY=1;entryDx=0;entryDy=0;exitX=1;exitY=0;exitDx=0;exitDy=0;" edge="1" parent="1" source="9OKxmw70vjrB0rI9SiNE-2" target="9OKxmw70vjrB0rI9SiNE-5">
          <mxGeometry width="100" height="100" relative="1" as="geometry">
            <mxPoint x="-130" y="520" as="sourcePoint" />
            <mxPoint x="-30" y="420" as="targetPoint" />
          </mxGeometry>
        </mxCell>
        <mxCell id="9OKxmw70vjrB0rI9SiNE-74" value="" style="edgeStyle=entityRelationEdgeStyle;fontSize=12;html=1;endArrow=ERmandOne;startArrow=ERmandOne;entryX=1;entryY=1;entryDx=0;entryDy=0;exitX=0;exitY=0;exitDx=0;exitDy=0;" edge="1" parent="1" source="9OKxmw70vjrB0rI9SiNE-6" target="9OKxmw70vjrB0rI9SiNE-2">
          <mxGeometry width="100" height="100" relative="1" as="geometry">
            <mxPoint x="-130" y="520" as="sourcePoint" />
            <mxPoint x="-30" y="420" as="targetPoint" />
          </mxGeometry>
        </mxCell>
        <mxCell id="9OKxmw70vjrB0rI9SiNE-75" value="" style="edgeStyle=entityRelationEdgeStyle;fontSize=12;html=1;endArrow=ERoneToMany;entryX=1;entryY=0.5;entryDx=0;entryDy=0;exitX=0;exitY=0.5;exitDx=0;exitDy=0;" edge="1" parent="1" source="9OKxmw70vjrB0rI9SiNE-3" target="9OKxmw70vjrB0rI9SiNE-4">
          <mxGeometry width="100" height="100" relative="1" as="geometry">
            <mxPoint x="260" y="640" as="sourcePoint" />
            <mxPoint x="360" y="540" as="targetPoint" />
          </mxGeometry>
        </mxCell>
        <mxCell id="9OKxmw70vjrB0rI9SiNE-76" value="" style="edgeStyle=entityRelationEdgeStyle;fontSize=12;html=1;endArrow=ERoneToMany;entryX=0;entryY=0.5;entryDx=0;entryDy=0;exitX=1;exitY=0.5;exitDx=0;exitDy=0;" edge="1" parent="1" source="9OKxmw70vjrB0rI9SiNE-6" target="9OKxmw70vjrB0rI9SiNE-4">
          <mxGeometry width="100" height="100" relative="1" as="geometry">
            <mxPoint x="-130" y="520" as="sourcePoint" />
            <mxPoint x="-30" y="420" as="targetPoint" />
          </mxGeometry>
        </mxCell>
        <mxCell id="9OKxmw70vjrB0rI9SiNE-77" value="" style="edgeStyle=entityRelationEdgeStyle;fontSize=12;html=1;endArrow=ERmany;exitX=1;exitY=0.5;exitDx=0;exitDy=0;entryX=0.5;entryY=0;entryDx=0;entryDy=0;" edge="1" parent="1" source="9OKxmw70vjrB0rI9SiNE-3" target="9OKxmw70vjrB0rI9SiNE-19">
          <mxGeometry width="100" height="100" relative="1" as="geometry">
            <mxPoint x="270" y="420" as="sourcePoint" />
            <mxPoint x="370" y="320" as="targetPoint" />
          </mxGeometry>
        </mxCell>
        <mxCell id="9OKxmw70vjrB0rI9SiNE-78" value="" style="edgeStyle=entityRelationEdgeStyle;fontSize=12;html=1;endArrow=ERoneToMany;entryX=0;entryY=0.5;entryDx=0;entryDy=0;exitX=1;exitY=0.5;exitDx=0;exitDy=0;" edge="1" parent="1" source="9OKxmw70vjrB0rI9SiNE-3" target="9OKxmw70vjrB0rI9SiNE-20">
          <mxGeometry width="100" height="100" relative="1" as="geometry">
            <mxPoint x="270" y="420" as="sourcePoint" />
            <mxPoint x="370" y="320" as="targetPoint" />
          </mxGeometry>
        </mxCell>
        <mxCell id="9OKxmw70vjrB0rI9SiNE-80" value="game&#39;s_tags" style="rounded=1;arcSize=10;whiteSpace=wrap;html=1;align=center;" vertex="1" parent="1">
          <mxGeometry x="540" y="420" width="100" height="40" as="geometry" />
        </mxCell>
        <mxCell id="9OKxmw70vjrB0rI9SiNE-82" value="" style="edgeStyle=entityRelationEdgeStyle;fontSize=12;html=1;endArrow=ERoneToMany;exitX=0;exitY=0;exitDx=0;exitDy=0;entryX=0;entryY=0.5;entryDx=0;entryDy=0;" edge="1" parent="1" source="9OKxmw70vjrB0rI9SiNE-3" target="9OKxmw70vjrB0rI9SiNE-80">
          <mxGeometry width="100" height="100" relative="1" as="geometry">
            <mxPoint x="270" y="520" as="sourcePoint" />
            <mxPoint x="370" y="420" as="targetPoint" />
          </mxGeometry>
        </mxCell>
        <mxCell id="9OKxmw70vjrB0rI9SiNE-83" value="" style="edgeStyle=entityRelationEdgeStyle;fontSize=12;html=1;endArrow=ERmany;exitX=0;exitY=1;exitDx=0;exitDy=0;entryX=0.5;entryY=0;entryDx=0;entryDy=0;" edge="1" parent="1" source="9OKxmw70vjrB0rI9SiNE-3" target="9OKxmw70vjrB0rI9SiNE-16">
          <mxGeometry width="100" height="100" relative="1" as="geometry">
            <mxPoint x="270" y="600" as="sourcePoint" />
            <mxPoint x="370" y="500" as="targetPoint" />
          </mxGeometry>
        </mxCell>
        <mxCell id="9OKxmw70vjrB0rI9SiNE-85" value="" style="edgeStyle=entityRelationEdgeStyle;fontSize=12;html=1;endArrow=ERoneToMany;entryX=0;entryY=0.5;entryDx=0;entryDy=0;exitX=0.25;exitY=1;exitDx=0;exitDy=0;" edge="1" parent="1" source="9OKxmw70vjrB0rI9SiNE-2" target="9OKxmw70vjrB0rI9SiNE-16">
          <mxGeometry width="100" height="100" relative="1" as="geometry">
            <mxPoint x="110" y="750" as="sourcePoint" />
            <mxPoint x="210" y="650" as="targetPoint" />
          </mxGeometry>
        </mxCell>
        <mxCell id="9OKxmw70vjrB0rI9SiNE-87" value="" style="edgeStyle=entityRelationEdgeStyle;fontSize=12;html=1;endArrow=ERmany;exitX=0.5;exitY=0;exitDx=0;exitDy=0;entryX=0.5;entryY=1;entryDx=0;entryDy=0;" edge="1" parent="1" source="9OKxmw70vjrB0rI9SiNE-33" target="9OKxmw70vjrB0rI9SiNE-32">
          <mxGeometry width="100" height="100" relative="1" as="geometry">
            <mxPoint x="270" y="640" as="sourcePoint" />
            <mxPoint x="370" y="540" as="targetPoint" />
          </mxGeometry>
        </mxCell>
        <mxCell id="9OKxmw70vjrB0rI9SiNE-88" value="" style="edgeStyle=entityRelationEdgeStyle;fontSize=12;html=1;endArrow=ERmany;exitX=0.5;exitY=0;exitDx=0;exitDy=0;entryX=0.5;entryY=1;entryDx=0;entryDy=0;" edge="1" parent="1" source="9OKxmw70vjrB0rI9SiNE-32" target="9OKxmw70vjrB0rI9SiNE-3">
          <mxGeometry width="100" height="100" relative="1" as="geometry">
            <mxPoint x="270" y="640" as="sourcePoint" />
            <mxPoint x="370" y="540" as="targetPoint" />
          </mxGeometry>
        </mxCell>
        <mxCell id="9OKxmw70vjrB0rI9SiNE-91" value="" style="edgeStyle=entityRelationEdgeStyle;fontSize=12;html=1;endArrow=ERmandOne;startArrow=ERmandOne;exitX=1;exitY=0.5;exitDx=0;exitDy=0;entryX=0.363;entryY=1.05;entryDx=0;entryDy=0;entryPerimeter=0;" edge="1" parent="1" source="9OKxmw70vjrB0rI9SiNE-10" target="9OKxmw70vjrB0rI9SiNE-3">
          <mxGeometry width="100" height="100" relative="1" as="geometry">
            <mxPoint x="140" y="920" as="sourcePoint" />
            <mxPoint x="240" y="820" as="targetPoint" />
          </mxGeometry>
        </mxCell>
        <mxCell id="9OKxmw70vjrB0rI9SiNE-92" value="" style="edgeStyle=entityRelationEdgeStyle;fontSize=12;html=1;endArrow=ERoneToMany;exitX=0.25;exitY=1;exitDx=0;exitDy=0;entryX=0;entryY=0.5;entryDx=0;entryDy=0;" edge="1" parent="1" source="9OKxmw70vjrB0rI9SiNE-2" target="9OKxmw70vjrB0rI9SiNE-10">
          <mxGeometry width="100" height="100" relative="1" as="geometry">
            <mxPoint x="-50" y="980" as="sourcePoint" />
            <mxPoint x="50" y="880" as="targetPoint" />
          </mxGeometry>
        </mxCell>
        <mxCell id="9OKxmw70vjrB0rI9SiNE-93" value="" style="edgeStyle=entityRelationEdgeStyle;fontSize=12;html=1;endArrow=ERoneToMany;entryX=0;entryY=0;entryDx=0;entryDy=0;exitX=0;exitY=1;exitDx=0;exitDy=0;" edge="1" parent="1" source="9OKxmw70vjrB0rI9SiNE-2" target="9OKxmw70vjrB0rI9SiNE-22">
          <mxGeometry width="100" height="100" relative="1" as="geometry">
            <mxPoint x="-280" y="910" as="sourcePoint" />
            <mxPoint x="-180" y="810" as="targetPoint" />
          </mxGeometry>
        </mxCell>
        <mxCell id="9OKxmw70vjrB0rI9SiNE-94" value="" style="edgeStyle=entityRelationEdgeStyle;fontSize=12;html=1;endArrow=ERoneToMany;entryX=0;entryY=0.5;entryDx=0;entryDy=0;exitX=0.5;exitY=1;exitDx=0;exitDy=0;" edge="1" parent="1" source="9OKxmw70vjrB0rI9SiNE-22" target="9OKxmw70vjrB0rI9SiNE-23">
          <mxGeometry width="100" height="100" relative="1" as="geometry">
            <mxPoint x="-150" y="1190" as="sourcePoint" />
            <mxPoint x="-50" y="1090" as="targetPoint" />
          </mxGeometry>
        </mxCell>
        <mxCell id="9OKxmw70vjrB0rI9SiNE-95" value="" style="edgeStyle=entityRelationEdgeStyle;fontSize=12;html=1;endArrow=ERoneToMany;entryX=1;entryY=0.5;entryDx=0;entryDy=0;exitX=0.5;exitY=1;exitDx=0;exitDy=0;" edge="1" parent="1" source="9OKxmw70vjrB0rI9SiNE-10" target="9OKxmw70vjrB0rI9SiNE-22">
          <mxGeometry width="100" height="100" relative="1" as="geometry">
            <mxPoint x="10" y="1060" as="sourcePoint" />
            <mxPoint x="290" y="1020" as="targetPoint" />
          </mxGeometry>
        </mxCell>
        <mxCell id="9OKxmw70vjrB0rI9SiNE-97" value="" style="edgeStyle=entityRelationEdgeStyle;fontSize=12;html=1;endArrow=ERmany;exitX=0;exitY=0;exitDx=0;exitDy=0;entryX=0.5;entryY=1;entryDx=0;entryDy=0;" edge="1" parent="1" source="9OKxmw70vjrB0rI9SiNE-3" target="9OKxmw70vjrB0rI9SiNE-24">
          <mxGeometry width="100" height="100" relative="1" as="geometry">
            <mxPoint x="100" y="650" as="sourcePoint" />
            <mxPoint x="200" y="550" as="targetPoint" />
          </mxGeometry>
        </mxCell>
        <mxCell id="9OKxmw70vjrB0rI9SiNE-98" value="" style="edgeStyle=entityRelationEdgeStyle;fontSize=12;html=1;endArrow=ERoneToMany;entryX=0;entryY=1;entryDx=0;entryDy=0;exitX=1;exitY=0.5;exitDx=0;exitDy=0;" edge="1" parent="1" source="9OKxmw70vjrB0rI9SiNE-5" target="9OKxmw70vjrB0rI9SiNE-24">
          <mxGeometry width="100" height="100" relative="1" as="geometry">
            <mxPoint x="130" y="480" as="sourcePoint" />
            <mxPoint x="230" y="380" as="targetPoint" />
          </mxGeometry>
        </mxCell>
        <mxCell id="9OKxmw70vjrB0rI9SiNE-102" value="" style="edgeStyle=entityRelationEdgeStyle;fontSize=12;html=1;endArrow=ERmany;exitX=1;exitY=0;exitDx=0;exitDy=0;entryX=0;entryY=0;entryDx=0;entryDy=0;" edge="1" parent="1" source="9OKxmw70vjrB0rI9SiNE-28" target="9OKxmw70vjrB0rI9SiNE-27">
          <mxGeometry width="100" height="100" relative="1" as="geometry">
            <mxPoint x="100" y="480" as="sourcePoint" />
            <mxPoint x="200" y="380" as="targetPoint" />
          </mxGeometry>
        </mxCell>
        <mxCell id="9OKxmw70vjrB0rI9SiNE-103" value="" style="edgeStyle=entityRelationEdgeStyle;fontSize=12;html=1;endArrow=ERoneToMany;entryX=0.5;entryY=0;entryDx=0;entryDy=0;exitX=0.5;exitY=1;exitDx=0;exitDy=0;" edge="1" parent="1" source="9OKxmw70vjrB0rI9SiNE-28" target="9OKxmw70vjrB0rI9SiNE-26">
          <mxGeometry width="100" height="100" relative="1" as="geometry">
            <mxPoint x="100" y="480" as="sourcePoint" />
            <mxPoint x="200" y="380" as="targetPoint" />
          </mxGeometry>
        </mxCell>
        <mxCell id="9OKxmw70vjrB0rI9SiNE-104" value="" style="edgeStyle=entityRelationEdgeStyle;fontSize=12;html=1;endArrow=ERmandOne;startArrow=ERmandOne;entryX=0.5;entryY=0;entryDx=0;entryDy=0;exitX=0.5;exitY=1;exitDx=0;exitDy=0;" edge="1" parent="1" source="9OKxmw70vjrB0rI9SiNE-27" target="9OKxmw70vjrB0rI9SiNE-24">
          <mxGeometry width="100" height="100" relative="1" as="geometry">
            <mxPoint x="100" y="310" as="sourcePoint" />
            <mxPoint x="200" y="210" as="targetPoint" />
          </mxGeometry>
        </mxCell>
        <mxCell id="9OKxmw70vjrB0rI9SiNE-105" value="sale" style="rounded=1;arcSize=10;whiteSpace=wrap;html=1;align=center;" vertex="1" parent="1">
          <mxGeometry x="314" y="150" width="100" height="40" as="geometry" />
        </mxCell>
        <mxCell id="9OKxmw70vjrB0rI9SiNE-106" value="" style="edgeStyle=entityRelationEdgeStyle;fontSize=12;html=1;endArrow=ERmandOne;startArrow=ERmandOne;entryX=0;entryY=0.5;entryDx=0;entryDy=0;exitX=1;exitY=0.5;exitDx=0;exitDy=0;" edge="1" parent="1" source="9OKxmw70vjrB0rI9SiNE-27" target="9OKxmw70vjrB0rI9SiNE-105">
          <mxGeometry width="100" height="100" relative="1" as="geometry">
            <mxPoint x="100" y="480" as="sourcePoint" />
            <mxPoint x="200" y="380" as="targetPoint" />
          </mxGeometry>
        </mxCell>
        <mxCell id="9OKxmw70vjrB0rI9SiNE-107" value="MarketItemSell&lt;br&gt;" style="rounded=1;arcSize=10;whiteSpace=wrap;html=1;align=center;" vertex="1" parent="1">
          <mxGeometry x="150" y="470" width="100" height="40" as="geometry" />
        </mxCell>
        <mxCell id="9OKxmw70vjrB0rI9SiNE-110" value="" style="edgeStyle=entityRelationEdgeStyle;fontSize=12;html=1;endArrow=ERoneToMany;entryX=1;entryY=0.75;entryDx=0;entryDy=0;exitX=0;exitY=0.5;exitDx=0;exitDy=0;" edge="1" parent="1" source="9OKxmw70vjrB0rI9SiNE-107" target="9OKxmw70vjrB0rI9SiNE-2">
          <mxGeometry width="100" height="100" relative="1" as="geometry">
            <mxPoint x="120" y="610" as="sourcePoint" />
            <mxPoint x="220" y="510" as="targetPoint" />
          </mxGeometry>
        </mxCell>
        <mxCell id="9OKxmw70vjrB0rI9SiNE-111" value="" style="edgeStyle=entityRelationEdgeStyle;fontSize=12;html=1;endArrow=ERmandOne;startArrow=ERmandOne;exitX=0.75;exitY=0;exitDx=0;exitDy=0;entryX=0.25;entryY=1;entryDx=0;entryDy=0;" edge="1" parent="1" source="9OKxmw70vjrB0rI9SiNE-6" target="9OKxmw70vjrB0rI9SiNE-107">
          <mxGeometry width="100" height="100" relative="1" as="geometry">
            <mxPoint x="120" y="610" as="sourcePoint" />
            <mxPoint x="220" y="510" as="targetPoint" />
          </mxGeometry>
        </mxCell>
        <mxCell id="9OKxmw70vjrB0rI9SiNE-114" value="" style="edgeStyle=entityRelationEdgeStyle;fontSize=12;html=1;endArrow=ERmandOne;startArrow=ERmandOne;exitX=1;exitY=0;exitDx=0;exitDy=0;entryX=1;entryY=0;entryDx=0;entryDy=0;" edge="1" parent="1" source="9OKxmw70vjrB0rI9SiNE-107" target="9OKxmw70vjrB0rI9SiNE-26">
          <mxGeometry width="100" height="100" relative="1" as="geometry">
            <mxPoint x="120" y="440" as="sourcePoint" />
            <mxPoint x="220" y="340" as="targetPoint" />
          </mxGeometry>
        </mxCell>
        <mxCell id="9OKxmw70vjrB0rI9SiNE-115" value="balance_curr&lt;br&gt;" style="rounded=1;arcSize=10;whiteSpace=wrap;html=1;align=center;" vertex="1" parent="1">
          <mxGeometry x="-90" y="300" width="100" height="40" as="geometry" />
        </mxCell>
        <mxCell id="9OKxmw70vjrB0rI9SiNE-116" value="" style="edgeStyle=entityRelationEdgeStyle;fontSize=12;html=1;endArrow=ERmandOne;startArrow=ERmandOne;entryX=0.25;entryY=1;entryDx=0;entryDy=0;exitX=1;exitY=0.5;exitDx=0;exitDy=0;" edge="1" parent="1" source="9OKxmw70vjrB0rI9SiNE-2" target="9OKxmw70vjrB0rI9SiNE-115">
          <mxGeometry width="100" height="100" relative="1" as="geometry">
            <mxPoint x="-70" y="499" as="sourcePoint" />
            <mxPoint x="-60" y="330" as="targetPoint" />
          </mxGeometry>
        </mxCell>
        <mxCell id="9OKxmw70vjrB0rI9SiNE-120" value="" style="edgeStyle=entityRelationEdgeStyle;fontSize=12;html=1;endArrow=ERmandOne;startArrow=ERmandOne;entryX=0.5;entryY=1;entryDx=0;entryDy=0;exitX=0.5;exitY=0;exitDx=0;exitDy=0;" edge="1" parent="1" source="9OKxmw70vjrB0rI9SiNE-115" target="9OKxmw70vjrB0rI9SiNE-34">
          <mxGeometry width="100" height="100" relative="1" as="geometry">
            <mxPoint x="-260" y="330" as="sourcePoint" />
            <mxPoint x="-160" y="230" as="targetPoint" />
          </mxGeometry>
        </mxCell>
        <mxCell id="9OKxmw70vjrB0rI9SiNE-122" value="" style="edgeStyle=entityRelationEdgeStyle;fontSize=12;html=1;endArrow=ERmany;entryX=0;entryY=0.5;entryDx=0;entryDy=0;exitX=1;exitY=0.25;exitDx=0;exitDy=0;" edge="1" parent="1" source="9OKxmw70vjrB0rI9SiNE-34" target="9OKxmw70vjrB0rI9SiNE-29">
          <mxGeometry width="100" height="100" relative="1" as="geometry">
            <mxPoint x="-60" y="370" as="sourcePoint" />
            <mxPoint x="40" y="270" as="targetPoint" />
          </mxGeometry>
        </mxCell>
        <mxCell id="9OKxmw70vjrB0rI9SiNE-123" value="" style="edgeStyle=entityRelationEdgeStyle;fontSize=12;html=1;endArrow=ERoneToMany;entryX=0;entryY=0.5;entryDx=0;entryDy=0;exitX=1;exitY=0.5;exitDx=0;exitDy=0;" edge="1" parent="1" source="9OKxmw70vjrB0rI9SiNE-34" target="9OKxmw70vjrB0rI9SiNE-28">
          <mxGeometry width="100" height="100" relative="1" as="geometry">
            <mxPoint x="-60" y="370" as="sourcePoint" />
            <mxPoint x="40" y="270" as="targetPoint" />
          </mxGeometry>
        </mxCell>
        <mxCell id="9OKxmw70vjrB0rI9SiNE-124" value="newPayment&lt;br&gt;" style="rounded=1;arcSize=10;whiteSpace=wrap;html=1;align=center;" vertex="1" parent="1">
          <mxGeometry x="-260" y="130" width="100" height="40" as="geometry" />
        </mxCell>
        <mxCell id="9OKxmw70vjrB0rI9SiNE-126" value="" style="edgeStyle=entityRelationEdgeStyle;fontSize=12;html=1;endArrow=ERmany;entryX=0.5;entryY=1;entryDx=0;entryDy=0;exitX=0;exitY=0;exitDx=0;exitDy=0;" edge="1" parent="1" source="9OKxmw70vjrB0rI9SiNE-2" target="9OKxmw70vjrB0rI9SiNE-124">
          <mxGeometry width="100" height="100" relative="1" as="geometry">
            <mxPoint x="-60" y="360" as="sourcePoint" />
            <mxPoint x="40" y="260" as="targetPoint" />
          </mxGeometry>
        </mxCell>
        <mxCell id="9OKxmw70vjrB0rI9SiNE-128" value="" style="edgeStyle=entityRelationEdgeStyle;fontSize=12;html=1;endArrow=ERmandOne;startArrow=ERmandOne;entryX=0;entryY=0;entryDx=0;entryDy=0;exitX=0.75;exitY=0;exitDx=0;exitDy=0;" edge="1" parent="1" source="9OKxmw70vjrB0rI9SiNE-124" target="9OKxmw70vjrB0rI9SiNE-29">
          <mxGeometry width="100" height="100" relative="1" as="geometry">
            <mxPoint x="-60" y="360" as="sourcePoint" />
            <mxPoint x="40" y="260" as="targetPoint" />
          </mxGeometry>
        </mxCell>
        <mxCell id="9OKxmw70vjrB0rI9SiNE-129" value="" style="edgeStyle=entityRelationEdgeStyle;fontSize=12;html=1;endArrow=ERmandOne;startArrow=ERmandOne;entryX=0;entryY=0.5;entryDx=0;entryDy=0;exitX=1;exitY=0.5;exitDx=0;exitDy=0;" edge="1" parent="1" source="9OKxmw70vjrB0rI9SiNE-29" target="9OKxmw70vjrB0rI9SiNE-30">
          <mxGeometry width="100" height="100" relative="1" as="geometry">
            <mxPoint x="-60" y="360" as="sourcePoint" />
            <mxPoint x="40" y="260" as="targetPoint" />
          </mxGeometry>
        </mxCell>
        <mxCell id="9OKxmw70vjrB0rI9SiNE-130" value="" style="edgeStyle=entityRelationEdgeStyle;fontSize=12;html=1;endArrow=ERmandOne;startArrow=ERmandOne;entryX=0.75;entryY=1;entryDx=0;entryDy=0;exitX=1;exitY=0.5;exitDx=0;exitDy=0;" edge="1" parent="1" source="9OKxmw70vjrB0rI9SiNE-107" target="9OKxmw70vjrB0rI9SiNE-30">
          <mxGeometry width="100" height="100" relative="1" as="geometry">
            <mxPoint x="260" y="490" as="sourcePoint" />
            <mxPoint x="40" y="260" as="targetPoint" />
          </mxGeometry>
        </mxCell>
        <mxCell id="9OKxmw70vjrB0rI9SiNE-131" value="" style="edgeStyle=entityRelationEdgeStyle;fontSize=12;html=1;endArrow=ERmandOne;startArrow=ERmandOne;entryX=0;entryY=0.5;entryDx=0;entryDy=0;exitX=0.75;exitY=0;exitDx=0;exitDy=0;" edge="1" parent="1" source="9OKxmw70vjrB0rI9SiNE-29" target="9OKxmw70vjrB0rI9SiNE-31">
          <mxGeometry width="100" height="100" relative="1" as="geometry">
            <mxPoint x="250" y="320" as="sourcePoint" />
            <mxPoint x="350" y="220" as="targetPoint" />
          </mxGeometry>
        </mxCell>
        <mxCell id="9OKxmw70vjrB0rI9SiNE-133" value="" style="edgeStyle=entityRelationEdgeStyle;fontSize=12;html=1;endArrow=ERmandOne;startArrow=ERmandOne;entryX=0.5;entryY=1;entryDx=0;entryDy=0;exitX=0.5;exitY=0;exitDx=0;exitDy=0;" edge="1" parent="1" source="9OKxmw70vjrB0rI9SiNE-27" target="9OKxmw70vjrB0rI9SiNE-31">
          <mxGeometry width="100" height="100" relative="1" as="geometry">
            <mxPoint x="250" y="320" as="sourcePoint" />
            <mxPoint x="350" y="220" as="targetPoint" />
          </mxGeometry>
        </mxCell>
      </root>
    </mxGraphModel>
  </diagram>
</mxfile>
